<?xml version="1.0" standalone="no"?><!DOCTYPE svg PUBLIC "-//W3C//DTD SVG 1.1//EN" "http://www.w3.org/Graphics/SVG/1.1/DTD/svg11.dtd"><svg t="1652428475916" class="icon" viewBox="0 0 1024 1024" version="1.1" xmlns="http://www.w3.org/2000/svg" p-id="1590" xmlns:xlink="http://www.w3.org/1999/xlink" width="200" height="200"><defs><style type="text/css">@font-face { font-family: feedback-iconfont; src: url("//at.alicdn.com/t/font_1031158_u69w8yhxdu.woff2?t=1630033759944") format("woff2"), url("//at.alicdn.com/t/font_1031158_u69w8yhxdu.woff?t=1630033759944") format("woff"), url("//at.alicdn.com/t/font_1031158_u69w8yhxdu.ttf?t=1630033759944") format("truetype"); }
</style></defs><path d="M640 85.333333a213.376 213.376 0 0 1 209.493333 172.970667 42.666667 42.666667 0 0 1-82.56 20.906667l-1.237333-4.821334a128.042667 128.042667 0 0 0-117.333333-103.424L640.042667 170.666667H298.666667a128 128 0 0 0-127.786667 120.490666L170.666667 298.666667v426.666666a128 128 0 0 0 120.490666 127.786667L298.666667 853.333333h341.333333a128.085333 128.085333 0 0 0 127.701333-119.168L768 725.333333a42.666667 42.666667 0 0 1 85.333333 0 213.418667 213.418667 0 0 1-203.733333 213.12L640 938.666667H298.666667a213.333333 213.333333 0 0 1-213.12-204.074667L85.333333 725.333333V298.666667a213.333333 213.333333 0 0 1 204.074667-213.12L298.666667 85.333333h341.333333z m136.32 267.306667l108.458667 109.184c14.933333 15.061333 14.933333 39.509333 0 54.570667l-270.506667 269.397333a85.333333 85.333333 0 0 1-60.16 24.874667H469.333333a42.666667 42.666667 0 0 1-42.666666-42.666667v-85.632a85.333333 85.333333 0 0 1 25.130666-60.458667l270.336-269.269333a38.144 38.144 0 0 1 54.186667 0z m-135.509333 191.018667l-137.472 135.253333v54.570667h54.186666l137.472-135.253334-54.186666-54.570666zM371.2 640c21.205333 0 38.4 19.114667 38.4 42.666667s-17.194667 42.666667-38.4 42.666666H294.4c-21.205333 0-38.4-19.114667-38.4-42.666666s17.194667-42.666667 38.4-42.666667h76.8z m61.568-145.066667c20.181333 0 36.565333 17.194667 36.565333 38.4s-16.384 38.4-36.565333 38.4H292.565333c-20.181333 0-36.565333-17.194667-36.565333-38.4s16.384-38.4 36.565333-38.4h140.202667z m316.458667-60.416l-54.186667 54.613334 54.186667 54.528 54.186666-54.570667-54.186666-54.570667zM558.933333 341.333333c21.205333 0 38.4 19.114667 38.4 42.666667s-17.194667 42.666667-38.4 42.666667H294.4c-21.205333 0-38.4-19.114667-38.4-42.666667s17.194667-42.666667 38.4-42.666667h264.533333z" fill="#e6e6e6" p-id="1591"></path></svg>