<svg xmlns:xlink="http://www.w3.org/1999/xlink" xmlns="http://www.w3.org/2000/svg" version="1.1" viewBox="0 0 1100 1100" height="1100px" width="1100px">
    <title>暂无计划数据-缺省页</title>
    <defs>
        <linearGradient id="linearGradient-1" y2="0%" x2="50%" y1="100%" x1="50%">
            <stop offset="4.475343e-05%" stop-opacity="0" stop-color="#FFFFFF"></stop>
            <stop offset="100%" stop-color="#E6EBEA"></stop>
        </linearGradient>
        <linearGradient id="linearGradient-2" y2="0%" x2="50%" y1="100%" x1="50%">
            <stop offset="4.475343e-05%" stop-opacity="0" stop-color="#FFFFFF"></stop>
            <stop offset="100%" stop-color="#E4EBE9"></stop>
        </linearGradient>
        <linearGradient id="linearGradient-3" y2="0%" x2="50%" y1="100%" x1="50%">
            <stop offset="4.475343e-05%" stop-opacity="0" stop-color="#FFFFFF"></stop>
            <stop offset="100%" stop-color="#E4EBE9"></stop>
        </linearGradient>
        <linearGradient id="linearGradient-4" y2="0%" x2="50%" y1="100%" x1="50%">
            <stop offset="4.475343e-05%" stop-opacity="0" stop-color="#FFFFFF"></stop>
            <stop offset="100%" stop-color="#E4EBE9"></stop>
        </linearGradient>
        <linearGradient id="linearGradient-5" y2="13.2167542%" x2="77.9601485%" y1="106.268911%" x1="77.9601485%">
            <stop offset="4.475343e-05%" stop-color="#F0F5F5"></stop>
            <stop offset="100%" stop-color="#D3E0DE"></stop>
        </linearGradient>
        <linearGradient id="linearGradient-6" y2="13.2167542%" x2="77.9601485%" y1="106.268911%" x1="77.9601485%">
            <stop offset="4.475343e-05%" stop-color="#F0F5F5"></stop>
            <stop offset="100%" stop-color="#D3E0DE"></stop>
        </linearGradient>
        <linearGradient id="linearGradient-7" y2="0%" x2="32.2166975%" y1="61.4624475%" x1="32.2166975%">
            <stop offset="4.475343e-05%" stop-opacity="0" stop-color="#F9FCFC"></stop>
            <stop offset="100%" stop-color="#D8E6E3"></stop>
        </linearGradient>
        <linearGradient id="linearGradient-8" y2="1.76977041%" x2="10.1299165%" y1="92.6700111%" x1="94.5740097%">
            <stop offset="4.475343e-05%" stop-color="#B8DBD0"></stop>
            <stop offset="100%" stop-color="#EEF5F5"></stop>
        </linearGradient>
    </defs>
    <g fill-rule="evenodd" fill="none" stroke-width="1" stroke="none" id="暂无计划数据-缺省页">
        <rect height="1100" width="1100" y="0" x="0" fill="#FFFFFF"></rect>
        <g transform="translate(50.000000, 50.000000)" id="CRM-adorn-zwjhsj">
            <rect height="1000" width="1000" y="0" x="0" id="矩形"></rect>
            <g fill-rule="nonzero" transform="translate(105.062845, 104.573471)" opacity="0.8" id="编组-11">
                <path opacity="0.6" fill="url(#linearGradient-1)" id="路径" d="M586.652413,69.9413715 L586.652413,300 C586.652413,331.559129 561.068684,357.142857 529.509555,357.142857 L183.886045,357.142857 L183.886045,357.142857 C184.314631,258.513599 184.937514,152.586687 185.754694,39.362122 C185.811343,31.5127773 192.190487,25.1795076 200.040036,25.1795076 L261.833193,25.1795076 C269.705284,25.1795042 276.093866,31.5478509 276.118839,39.4199029 C276.172306,56.2740911 276.15442,64.8203586 276.065181,65.0587056 L276.065181,65.114598 C276.065181,65.114598 276.176789,65.0587056 276.232593,65.0028132 L276.232593,64.8351362 C276.232593,56.7214288 282.752377,50.1913382 290.853278,50.1913382 C298.954178,50.1913382 305.473962,56.7214288 305.473962,64.8351362 C305.473962,69.624898 309.356831,73.5077672 314.146593,73.5077672 L337.696201,73.5077672 C355.492053,73.5077672 369.918441,59.0813792 369.918441,41.2855277 L369.918441,28.9065436 C369.918441,12.9419004 382.860341,2.93265738e-15 398.824984,0 C414.789627,-2.93265738e-15 427.731528,12.9419004 427.731528,28.9065436 L427.731528,105.953281 L427.731528,105.953281 C427.675724,106.176851 427.675724,106.344528 427.675724,106.577413 L427.675724,142.227422 C427.675724,147.462673 431.888936,151.691862 437.125224,151.691862 C442.296408,151.691862 446.518921,147.471989 446.518921,142.227422 L446.518921,114.458235 C464.683168,114.402343 477.843644,114.346451 486.55839,114.346451 C495.273136,114.346451 499.551454,114.402343 499.942083,114.458235 C501.346487,114.290558 499.942083,92.9396772 499.942083,92.9396772 L502.15293,92.9396772 C516.120925,92.9396772 527.444222,104.262975 527.444222,118.23097 L527.444222,118.23097 L527.444222,118.23097 C527.444222,122.059596 530.541352,125.161622 534.363935,125.161622 C538.186519,125.161622 541.283648,122.059596 541.283648,118.23097 L541.283648,69.9413715 C541.283648,57.4131332 551.439792,47.2569893 563.96803,47.2569893 C576.496269,47.2569893 586.652413,57.4131332 586.652413,69.9413715 Z"></path>
                <path transform="translate(617.575745, 357.142857) scale(-1, 1) translate(-617.575745, -357.142857)" opacity="0.96" fill="url(#linearGradient-2)" id="路径备份" d="M763.395601,210.96901 L763.395601,597.430613 L763.395601,597.430613 L471.75589,597.430613 C472.356615,459.187385 472.356615,331.966511 471.75589,215.767993 L471.75589,215.767993 L471.75589,155.752076 C471.75589,134.26987 489.170659,116.855101 510.652865,116.855101 C532.135072,116.855101 549.549841,134.26987 549.549841,155.752076 L549.549841,259.427048 L549.549841,259.427048 C549.47475,259.727886 549.47475,259.953514 549.47475,260.266886 L549.47475,308.237947 C549.47475,315.28256 555.144097,320.973405 562.190107,320.973405 C569.14851,320.973405 574.830372,315.295095 574.830372,308.237947 L574.830372,270.871411 C599.272391,270.796202 616.981277,270.720992 628.70794,270.720992 C640.434602,270.720992 646.191554,270.796202 646.717189,270.871411 C648.606971,270.645783 646.717189,241.915793 646.717189,241.915793 L649.69213,241.915793 C668.487624,241.915793 683.724383,257.152552 683.724383,275.948046 L683.724383,275.948046 L683.724383,275.948046 C683.724383,281.099889 687.891916,285.274011 693.035628,285.274011 C698.17934,285.274011 702.346873,281.099889 702.346873,275.948046 L702.346873,210.96901 C702.346873,194.110869 716.013096,180.444646 732.871237,180.444646 C749.729378,180.444646 763.395601,194.110869 763.395601,210.96901 Z"></path>
                <path transform="translate(164.023089, 435.714286) scale(-1, 1) translate(-164.023089, -435.714286)" opacity="0.96" fill="url(#linearGradient-3)" id="路径备份-2" d="M328.046179,676.002042 L0,676.002042 C0.582891132,541.862983 1.43286466,397.692501 2.54992057,243.490596 C2.60677759,235.641401 8.98585937,229.308363 16.83526,229.308363 L109.807357,229.308363 C117.677497,229.308363 124.065264,235.673672 124.092982,243.543764 C124.184346,269.484928 124.165785,282.627096 124.037299,282.970268 L124.037299,283.045477 C124.037299,283.045477 124.18748,282.970268 124.262571,282.895058 L124.262571,282.66943 C124.262571,271.751533 133.035666,262.964568 143.936331,262.964568 C154.836995,262.964568 163.610091,271.751533 163.610091,282.66943 C163.610091,289.114588 168.834924,294.339422 175.280082,294.339422 L206.968705,294.339422 C230.915006,294.339422 250.327318,274.927109 250.327318,250.980808 L250.327318,234.28596 C250.327318,212.824489 267.725278,195.426529 289.186749,195.426529 C310.648219,195.426529 328.046179,212.824489 328.046179,234.28596 L328.046179,337.998477 L328.046179,338.838315 L328.046179,386.809375 L328.046179,676.002042 L328.046179,676.002042 Z"></path>
            </g>
            <g fill-rule="nonzero" transform="translate(7.142857, 464.285714)" id="编组-19">
                <ellipse ry="235.714286" rx="492.857143" cy="235.714286" cx="492.857143" opacity="0.8" fill="url(#linearGradient-4)" id="椭圆形"></ellipse>
                <g transform="translate(106.043956, 51.002042)" id="编组-17">
                    <rect rx="7.14285714" height="71.4285714" width="14.2857143" y="103.571429" x="36.8131868" fill="#D8E6E4" id="矩形"></rect>
                    <path fill="url(#linearGradient-5)" id="椭圆形" d="M43.956044,114.285714 C68.2322967,114.285714 87.9120879,94.6059231 87.9120879,70.3296703 C87.9120879,54.1455018 73.2600733,30.7022784 43.956044,0 C37.2796282,7.16759061 32.5067171,12.4271543 29.6373108,15.778691 C29.2062175,16.2822185 33.2465792,22.3827588 41.758396,34.0803117 C29.7747522,26.5768622 23.4537637,23.2406601 22.7954307,24.0717053 C7.59847688,43.2555442 0,58.6748658 0,70.3296703 C0,94.6059231 19.6797912,114.285714 43.956044,114.285714 Z"></path>
                </g>
                <g transform="translate(850.000000, 118.859185)" id="编组-17备份">
                    <rect rx="4.0625" height="40.8163265" width="8.125" y="59.1836735" x="20.9375" fill="#D8E6E4" id="矩形"></rect>
                    <path fill="url(#linearGradient-6)" id="椭圆形" d="M25,65.3061224 C38.8071187,65.3061224 50,54.0605275 50,40.188383 C50,30.9402868 41.6666667,17.5441591 25,0 C21.2027885,4.09576606 18.4881954,7.10123101 16.8562205,9.01639484 C16.6110362,9.30412488 18.9089919,12.7901479 23.7500877,19.4744638 C16.9343903,15.1867784 13.3393281,13.2803772 12.9649012,13.7552602 C4.32163373,24.7174538 0,33.5284948 0,40.188383 C0,54.0605275 11.1928813,65.3061224 25,65.3061224 Z"></path>
                </g>
                <g transform="translate(778.571429, 47.430613)" id="编组-17备份-2">
                    <rect rx="4.0625" height="40.8163265" width="8.125" y="59.1836735" x="20.9375" fill="#D8E6E4" id="矩形"></rect>
                    <path fill="url(#linearGradient-6)" id="椭圆形" d="M25,65.3061224 C38.8071187,65.3061224 50,54.0605275 50,40.188383 C50,30.9402868 41.6666667,17.5441591 25,0 C21.2027885,4.09576606 18.4881954,7.10123101 16.8562205,9.01639484 C16.6110362,9.30412488 18.9089919,12.7901479 23.7500877,19.4744638 C16.9343903,15.1867784 13.3393281,13.2803772 12.9649012,13.7552602 C4.32163373,24.7174538 0,33.5284948 0,40.188383 C0,54.0605275 11.1928813,65.3061224 25,65.3061224 Z"></path>
                </g>
            </g>
            <polygon points="895.710482 727.724665 576.182747 828.881532 330.587263 592.183522 642.279069 591.050647" fill-rule="nonzero" fill="url(#linearGradient-7)" id="路径"></polygon>
            <g fill-rule="nonzero" transform="translate(325.000000, 225.000000)" id="编组-20">
                <path fill="url(#linearGradient-8)" id="矩形" d="M25,31.25 L325,31.25 C338.807119,31.25 350,42.4428813 350,56.25 L350,350 C350,363.807119 338.807119,375 325,375 L25,375 C11.1928813,375 -8.96725666e-15,363.807119 0,350 L0,56.25 C-1.69088438e-15,42.4428813 11.1928813,31.25 25,31.25 Z"></path>
                <rect rx="12.5" height="262.5" width="262.5" y="75" x="43.75" fill="#FAFCFC" id="矩形"></rect>
                <path transform="translate(304.755051, 404.365957) rotate(94.000000) translate(-304.755051, -404.365957)" fill="#B4D6CB" id="矩形" d="M301.630051,310.615957 L307.880051,310.615957 C314.78361,310.615957 320.380051,316.212398 320.380051,323.115957 L320.380051,463.915108 C320.380051,465.855671 319.928237,467.769585 319.060391,469.505278 L307.550136,492.525787 C306.778295,494.06947 304.901191,494.695171 303.357509,493.92333 C302.752735,493.620943 302.262353,493.130561 301.959966,492.525787 L290.449711,469.505278 C289.581865,467.769585 289.130051,465.855671 289.130051,463.915108 L289.130051,323.115957 C289.130051,316.212398 294.726492,310.615957 301.630051,310.615957 Z"></path>
                <path transform="translate(368.159792, 389.011715) rotate(4.000000) translate(-368.159792, -389.011715)" fill="#B4D6CB" id="矩形" d="M349.409792,384.860479 L386.909792,384.860479 C388.635681,384.860479 390.034792,386.259589 390.034792,387.985479 C390.034792,389.711369 388.635681,391.110479 386.909792,391.110479 L383.760088,391.110479 L383.760088,391.110479 L382.271369,393.162951 L377.578015,393.162951 L375.943474,391.110479 L349.409792,391.110479 C347.683902,391.110479 346.284792,389.711369 346.284792,387.985479 C346.284792,386.259589 347.683902,384.860479 349.409792,384.860479 Z"></path>
                <rect rx="7.14285714" height="14.2857143" width="80.3571438" y="125.892857" x="83.0357143" fill="#B4D6CB" id="矩形"></rect>
                <rect rx="7.14285714" height="14.2857143" width="80.3571438" y="232.142857" x="83.0357143" fill="#B4D6CB" id="矩形备份-2"></rect>
                <path fill="#B4D6CB" id="矩形备份-13" d="M90.1785714,161.607143 L257.142857,161.607143 C261.087748,161.607143 264.285714,164.805109 264.285714,168.75 C264.285714,172.694891 261.087748,175.892857 257.142857,175.892857 L90.1785714,175.892857 C86.2336804,175.892857 83.0357143,172.694891 83.0357143,168.75 C83.0357143,164.805109 86.2336804,161.607143 90.1785714,161.607143 Z"></path>
                <path fill="#B4D6CB" id="矩形备份-14" d="M90.1785714,267.857143 L257.142857,267.857143 C261.087748,267.857143 264.285714,271.055109 264.285714,275 C264.285714,278.944891 261.087748,282.142857 257.142857,282.142857 L90.1785714,282.142857 C86.2336804,282.142857 83.0357143,278.944891 83.0357143,275 C83.0357143,271.055109 86.2336804,267.857143 90.1785714,267.857143 Z"></path>
                <path fill="#B4D6CB" id="矩形备份" d="M75,0 L275,0 C288.807119,-2.53632657e-15 300,11.1928813 300,25 L300,56.25 L300,56.25 L50,56.25 L50,25 C50,11.1928813 61.1928813,2.53632657e-15 75,0 Z"></path>
            </g>
            <g fill-rule="nonzero" fill="#B0D6C9" transform="translate(672.920566, 214.909459) scale(-1, 1) translate(-672.920566, -214.909459) translate(637.803155, 189.902335)" opacity="0.6" id="编组">
                <path id="路径" d="M46.1557419,44.4988933 L23.6961897,11.8299078 C22.107557,9.51913068 21.9297279,6.51847667 23.2343099,4.03623764 C24.5271548,1.57633094 27.1339027,0.0943071589 29.9089577,0.241476009 L34.6918971,0.495128531 C39.9949905,0.776366257 44.2254363,5.02428643 44.4848117,10.3284941 L46.1557419,44.4988933 L46.1557419,44.4988933 Z"></path>
                <path id="路径" d="M36.8820422,50.0142491 L5.75353271,44.2709848 C3.54704516,43.863884 1.7482127,42.2669269 1.0825574,40.1242134 C0.422630928,37.9999407 1.05824049,35.6858279 2.71065365,34.1966777 L5.5567108,31.6318189 C8.71168556,28.7885644 13.507403,28.7971384 16.652191,31.6516559 L36.8820422,50.0142491 L36.8820422,50.0142491 Z"></path>
                <path id="路径" d="M51.9001794,38.7328395 L54.2350089,10.7380501 C54.4000046,8.75973835 55.6478691,7.03585043 57.4756629,6.26118231 C59.2868396,5.49355696 61.3792664,5.85186072 62.8318475,7.17836664 L65.3414123,9.47011659 C68.1219857,12.0093532 68.5335907,16.2393922 66.2947052,19.2670485 L51.9001794,38.7328395 L51.9001794,38.7328395 Z"></path>
            </g>
        </g>
    </g>
</svg>