<?xml version="1.0" standalone="no"?><!DOCTYPE svg PUBLIC "-//W3C//DTD SVG 1.1//EN" "http://www.w3.org/Graphics/SVG/1.1/DTD/svg11.dtd"><svg t="1650437174053" class="icon" viewBox="0 0 1024 1024" version="1.1" xmlns="http://www.w3.org/2000/svg" p-id="1164" xmlns:xlink="http://www.w3.org/1999/xlink" width="200" height="200"><defs><style type="text/css">@font-face { font-family: feedback-iconfont; src: url("//at.alicdn.com/t/font_1031158_u69w8yhxdu.woff2?t=1630033759944") format("woff2"), url("//at.alicdn.com/t/font_1031158_u69w8yhxdu.woff?t=1630033759944") format("woff"), url("//at.alicdn.com/t/font_1031158_u69w8yhxdu.ttf?t=1630033759944") format("truetype"); }
</style></defs><path d="M112.213333 556.8a42.666667 42.666667 0 0 1-30.293333-12.373333 42.666667 42.666667 0 0 1 0-60.586667l192.853333-192.853333a42.666667 42.666667 0 0 1 60.586667 0 42.666667 42.666667 0 0 1 0 60.16l-193.28 193.28a42.666667 42.666667 0 0 1-29.866667 12.373333z" fill="#37485d" p-id="1165"></path><path d="M298.666667 755.2a42.666667 42.666667 0 0 1-29.866667-12.373333l-192.426667-192.853334a42.666667 42.666667 0 1 1 60.586667-60.586666L329.813333 682.666667a42.666667 42.666667 0 0 1 0 60.16 42.666667 42.666667 0 0 1-31.146666 12.373333zM896 192H106.666667a42.666667 42.666667 0 0 1 0-85.333333H896a42.666667 42.666667 0 0 1 0 85.333333zM881.066667 564.48h-469.333334a42.666667 42.666667 0 0 1 0-85.333333h469.333334a42.666667 42.666667 0 0 1 0 85.333333zM896 917.333333H106.666667a42.666667 42.666667 0 0 1 0-85.333333H896a42.666667 42.666667 0 0 1 0 85.333333z" fill="#37485d" p-id="1166"></path></svg>