<?xml version="1.0" standalone="no"?><!DOCTYPE svg PUBLIC "-//W3C//DTD SVG 1.1//EN" "http://www.w3.org/Graphics/SVG/1.1/DTD/svg11.dtd"><svg t="1652102832574" class="icon" viewBox="0 0 1024 1024" version="1.1" xmlns="http://www.w3.org/2000/svg" p-id="944" xmlns:xlink="http://www.w3.org/1999/xlink" width="200" height="200"><defs><style type="text/css">@font-face { font-family: feedback-iconfont; src: url("//at.alicdn.com/t/font_1031158_u69w8yhxdu.woff2?t=1630033759944") format("woff2"), url("//at.alicdn.com/t/font_1031158_u69w8yhxdu.woff?t=1630033759944") format("woff"), url("//at.alicdn.com/t/font_1031158_u69w8yhxdu.ttf?t=1630033759944") format("truetype"); }
</style></defs><path d="M512 618.666667c-6.4 0-10.666667-2.133333-14.933333-6.4l-256-256c-6.4-6.4-8.533333-14.933333-4.266667-23.466667 4.266667-8.533333 10.666667-12.8 19.2-12.8h149.333333V106.666667c0-12.8 8.533333-21.333333 21.333334-21.333334h170.666666c12.8 0 21.333333 8.533333 21.333334 21.333334v213.333333h149.333333c8.533333 0 17.066667 4.266667 19.2 12.8 4.266667 8.533333 2.133333 17.066667-4.266667 23.466667l-256 256c-4.266667 4.266667-8.533333 6.4-14.933333 6.4z m-204.8-256l204.8 204.8 204.8-204.8H597.333333c-12.8 0-21.333333-8.533333-21.333333-21.333334V128h-128v213.333333c0 12.8-8.533333 21.333333-21.333333 21.333334h-119.466667zM896 789.333333H128c-12.8 0-21.333333-8.533333-21.333333-21.333333s8.533333-21.333333 21.333333-21.333333h768c12.8 0 21.333333 8.533333 21.333333 21.333333s-8.533333 21.333333-21.333333 21.333333zM725.333333 938.666667H298.666667c-12.8 0-21.333333-8.533333-21.333334-21.333334s8.533333-21.333333 21.333334-21.333333h426.666666c12.8 0 21.333333 8.533333 21.333334 21.333333s-8.533333 21.333333-21.333334 21.333334z" p-id="945" fill="#e6e6e6"></path></svg>