<?xml version="1.0" standalone="no"?><!DOCTYPE svg PUBLIC "-//W3C//DTD SVG 1.1//EN" "http://www.w3.org/Graphics/SVG/1.1/DTD/svg11.dtd"><svg t="1652619045071" class="icon" viewBox="0 0 1024 1024" version="1.1" xmlns="http://www.w3.org/2000/svg" p-id="2249" xmlns:xlink="http://www.w3.org/1999/xlink" width="200" height="200"><defs><style type="text/css">@font-face { font-family: feedback-iconfont; src: url("//at.alicdn.com/t/font_1031158_u69w8yhxdu.woff2?t=1630033759944") format("woff2"), url("//at.alicdn.com/t/font_1031158_u69w8yhxdu.woff?t=1630033759944") format("woff"), url("//at.alicdn.com/t/font_1031158_u69w8yhxdu.ttf?t=1630033759944") format("truetype"); }
</style></defs><path d="M671.580703 1024m-47.878807 0l-223.434431 0q-47.878807 0-47.878807-47.878807l0 0q0-47.878807 47.878807-47.878807l223.434431 0q47.878807 0 47.878807 47.878807l0 0q0 47.878807-47.878807 47.878807Z" p-id="2250" fill="#dbdbdb"></path><path d="M558.586719 264.322933m0 47.878806l0 414.949659q0 47.878807-47.878807 47.878807l0 0q-47.878807 0-47.878807-47.878807l0-414.949659q0-47.878807 47.878807-47.878806l0 0q47.878807 0 47.878807 47.878806Z" p-id="2251" fill="#dbdbdb"></path><path d="M285.705513 470.263878m33.855429-33.855429l157.992002-157.992001q33.855429-33.855429 67.710858 0l0 0q33.855429 33.855429 0 67.710857l-157.992002 157.992002q-33.855429 33.855429-67.710858 0l0 0q-33.855429-33.855429 0-67.710858Z" p-id="2252" fill="#dbdbdb"></path><path d="M510.717419 244.643555m33.855429 33.855429l157.992002 157.992002q33.855429 33.855429 0 67.710857l0 0q-33.855429 33.855429-67.710858 0l-157.992002-157.992001q-33.855429-33.855429 0-67.710858l0 0q33.855429-33.855429 67.710858 0Z" p-id="2253" fill="#dbdbdb"></path><path d="M845.85956 880.36358a47.878807 47.878807 0 0 1-34.472741-81.07478 414.949659 414.949659 0 1 0-601.357813 0 47.878807 47.878807 0 0 1-68.945482 63.838409 510.707272 510.707272 0 1 1 739.248776 0 47.240423 47.240423 0 0 1-34.47274 17.236371z" p-id="2254" fill="#dbdbdb"></path></svg>