<?xml version="1.0" standalone="no"?><!DOCTYPE svg PUBLIC "-//W3C//DTD SVG 1.1//EN" "http://www.w3.org/Graphics/SVG/1.1/DTD/svg11.dtd"><svg t="1652322595033" class="icon" viewBox="0 0 1024 1024" version="1.1" xmlns="http://www.w3.org/2000/svg" p-id="1278" xmlns:xlink="http://www.w3.org/1999/xlink" width="200" height="200"><defs><style type="text/css">@font-face { font-family: feedback-iconfont; src: url("//at.alicdn.com/t/font_1031158_u69w8yhxdu.woff2?t=1630033759944") format("woff2"), url("//at.alicdn.com/t/font_1031158_u69w8yhxdu.woff?t=1630033759944") format("woff"), url("//at.alicdn.com/t/font_1031158_u69w8yhxdu.ttf?t=1630033759944") format("truetype"); }
</style></defs><path d="M843.946667 212.309333l104.106666 130.133334a25.6 25.6 0 0 1-19.968 41.557333H853.333333v426.666667a42.666667 42.666667 0 0 1-85.333333 0V384h-74.752a25.6 25.6 0 0 1-19.968-41.6l104.106667-130.090667a42.666667 42.666667 0 0 1 66.56 0zM597.333333 810.666667a42.666667 42.666667 0 0 1-42.666666 42.666666H170.666667a42.666667 42.666667 0 0 1 0-85.333333h384a42.666667 42.666667 0 0 1 42.666666 42.666667z m0-298.666667a42.666667 42.666667 0 0 1-42.666666 42.666667H170.666667a42.666667 42.666667 0 0 1 0-85.333334h384a42.666667 42.666667 0 0 1 42.666666 42.666667z m-85.333333-298.666667a42.666667 42.666667 0 0 1-42.666667 42.666667H170.666667a42.666667 42.666667 0 1 1 0-85.333333h298.666666a42.666667 42.666667 0 0 1 42.666667 42.666666z" fill="#e6e6e6" p-id="1279"></path></svg>