<?xml version="1.0" standalone="no"?><!DOCTYPE svg PUBLIC "-//W3C//DTD SVG 1.1//EN" "http://www.w3.org/Graphics/SVG/1.1/DTD/svg11.dtd"><svg t="1652090250756" class="icon" viewBox="0 0 1024 1024" version="1.1" xmlns="http://www.w3.org/2000/svg" p-id="1653" xmlns:xlink="http://www.w3.org/1999/xlink" width="200" height="200"><defs><style type="text/css">@font-face { font-family: feedback-iconfont; src: url("//at.alicdn.com/t/font_1031158_u69w8yhxdu.woff2?t=1630033759944") format("woff2"), url("//at.alicdn.com/t/font_1031158_u69w8yhxdu.woff?t=1630033759944") format("woff"), url("//at.alicdn.com/t/font_1031158_u69w8yhxdu.ttf?t=1630033759944") format("truetype"); }
</style></defs><path d="M870.4 0H153.6C68.608 0 0 68.608 0 153.6v471.04c0 84.992 68.608 153.6 153.6 153.6h242.688l-175.616 175.616c-15.872 15.872-15.872 41.984 0 57.856 8.192 8.192 18.432 11.776 29.184 11.776 10.24 0 20.992-4.096 29.184-11.776l231.936-231.936c0.512-0.512 1.024-1.536 1.536-2.048 0.512 0.512 1.024 1.536 1.536 2.048l231.936 231.936c15.872 15.872 41.984 15.872 57.856 0 8.192-8.192 11.776-18.432 11.776-29.184s-4.096-20.992-11.776-29.184L627.712 778.24H870.4c84.992 0 153.6-68.608 153.6-153.6V153.6c0-84.992-68.608-153.6-153.6-153.6z m71.68 624.64c0 39.424-32.256 71.68-71.68 71.68H153.6c-39.424 0-71.68-32.256-71.68-71.68V153.6c0-39.424 32.256-71.68 71.68-71.68h716.8c39.424 0 71.68 32.256 71.68 71.68v471.04z" p-id="1654" fill="#e6e6e6"></path><path d="M512 573.44c-22.528 0-40.96-18.432-40.96-40.96V245.76c0-22.528 18.432-40.96 40.96-40.96s40.96 18.432 40.96 40.96v286.72c0 22.528-18.432 40.96-40.96 40.96zM286.72 573.44c-22.528 0-40.96-18.432-40.96-40.96V368.64c0-22.528 18.432-40.96 40.96-40.96s40.96 18.432 40.96 40.96v163.84c0 22.528-18.432 40.96-40.96 40.96zM737.28 573.44c-22.528 0-40.96-18.432-40.96-40.96V327.68c0-22.528 18.432-40.96 40.96-40.96s40.96 18.432 40.96 40.96v204.8c0 22.528-18.432 40.96-40.96 40.96zM512 778.24zM512 778.24z" p-id="1655" fill="#e6e6e6"></path></svg>