<?xml version="1.0" standalone="no"?><!DOCTYPE svg PUBLIC "-//W3C//DTD SVG 1.1//EN" "http://www.w3.org/Graphics/SVG/1.1/DTD/svg11.dtd"><svg t="1652090130644" class="icon" viewBox="0 0 1024 1024" version="1.1" xmlns="http://www.w3.org/2000/svg" p-id="1079" xmlns:xlink="http://www.w3.org/1999/xlink" width="200" height="200"><defs><style type="text/css">@font-face { font-family: feedback-iconfont; src: url("//at.alicdn.com/t/font_1031158_u69w8yhxdu.woff2?t=1630033759944") format("woff2"), url("//at.alicdn.com/t/font_1031158_u69w8yhxdu.woff?t=1630033759944") format("woff"), url("//at.alicdn.com/t/font_1031158_u69w8yhxdu.ttf?t=1630033759944") format("truetype"); }
</style></defs><path d="M516.195902 481.67961c-314.692683 0-369.639024-52.44878-384.62439-89.912195v-152.35122c0-9.990244 7.492683-19.980488 19.980488-19.980488 9.990244 0 17.482927 7.492683 17.482927 17.482927 12.487805 17.482927 124.878049 47.453659 332.17561 47.453659 212.292683 0 322.185366-32.468293 334.67317-47.453659 2.497561-7.492683 9.990244-14.985366 19.980488-14.985366s17.482927 7.492683 17.482927 17.482927v144.858537c0 67.434146-109.892683 97.404878-357.15122 97.404878z m-349.658536-99.902439c12.487805 24.97561 74.926829 62.439024 349.658536 62.439024 304.702439 0 319.687805-49.95122 319.687805-59.941463v-104.897561c-87.414634 39.960976-304.702439 42.458537-334.67317 42.458536-94.907317 0-184.819512-7.492683-252.253659-19.980487-34.965854-4.995122-62.439024-12.487805-82.419512-22.478049v102.4z m0-142.360976z" p-id="1080" fill="#bfbfbf"></path><path d="M516.195902 703.962537c-314.692683 0-369.639024-52.44878-384.62439-89.912196v-152.351219c0-9.990244 7.492683-19.980488 19.980488-19.980488 9.990244 0 17.482927 7.492683 17.482927 17.482927 12.487805 14.985366 124.878049 44.956098 334.673171 44.956098s322.185366-29.970732 334.67317-44.956098c2.497561-7.492683 9.990244-14.985366 19.980488-14.985366s17.482927 7.492683 17.482927 17.482927v147.356098c-2.497561 64.936585-112.390244 94.907317-359.648781 94.907317z m-349.658536-99.902439c12.487805 24.97561 74.926829 62.439024 349.658536 62.439024 304.702439 0 319.687805-49.95122 319.687805-59.941463v-107.395122c-87.414634 39.960976-304.702439 42.458537-334.67317 42.458536-94.907317 0-184.819512-7.492683-252.253659-17.482927-34.965854-4.995122-62.439024-12.487805-82.419512-22.478048v102.4z m0-142.360976z" p-id="1081" fill="#bfbfbf"></path><path d="M516.195902 926.245463c-314.692683 0-369.639024-52.44878-384.62439-89.912195v-152.351219c0-9.990244 7.492683-19.980488 19.980488-19.980488 9.990244 0 17.482927 7.492683 17.482927 17.482927 12.487805 14.985366 124.878049 44.956098 334.673171 44.956097s322.185366-29.970732 334.67317-44.956097c2.497561-7.492683 9.990244-14.985366 19.980488-14.985366s17.482927 7.492683 17.482927 17.482927v144.858536c-2.497561 69.931707-112.390244 97.404878-359.648781 97.404878z m-349.658536-99.902439c12.487805 24.97561 74.926829 62.439024 349.658536 62.439025 297.209756 0 319.687805-44.956098 319.687805-59.941464v-107.395122c-87.414634 39.960976-304.702439 42.458537-334.67317 42.458537-94.907317 0-184.819512-7.492683-252.253659-17.482927-34.965854-4.995122-62.439024-12.487805-82.419512-22.478049v102.4z m0-139.863414zM501.210537 259.396683c-37.463415 0-372.136585-2.497561-372.136586-84.917073s334.673171-84.917073 372.136586-84.917073c39.960976 2.497561 372.136585 2.497561 372.136585 84.917073s-332.17561 84.917073-372.136585 84.917073z m-332.17561-84.917073c19.980488 17.482927 129.873171 47.453659 332.17561 47.453658s314.692683-29.970732 332.175609-47.453658c-17.482927-17.482927-129.873171-47.453659-332.175609-47.453659s-312.195122 29.970732-332.17561 47.453659z" p-id="1082" fill="#bfbfbf"></path></svg>