<?xml version="1.0" standalone="no"?><!DOCTYPE svg PUBLIC "-//W3C//DTD SVG 1.1//EN" "http://www.w3.org/Graphics/SVG/1.1/DTD/svg11.dtd"><svg t="1652090645935" class="icon" viewBox="0 0 1024 1024" version="1.1" xmlns="http://www.w3.org/2000/svg" p-id="1434" xmlns:xlink="http://www.w3.org/1999/xlink" width="200" height="200"><defs><style type="text/css">@font-face { font-family: feedback-iconfont; src: url("//at.alicdn.com/t/font_1031158_u69w8yhxdu.woff2?t=1630033759944") format("woff2"), url("//at.alicdn.com/t/font_1031158_u69w8yhxdu.woff?t=1630033759944") format("woff"), url("//at.alicdn.com/t/font_1031158_u69w8yhxdu.ttf?t=1630033759944") format("truetype"); }
</style></defs><path d="M554.666667 541.013333V106.666667a42.666667 42.666667 0 0 0-85.333334 0v434.346666a128 128 0 0 0 0 240.64V896a42.666667 42.666667 0 0 0 85.333334 0v-114.346667a128 128 0 0 0 0-240.64z m-42.666667 162.986667a42.666667 42.666667 0 1 1 42.666667-42.666667 42.666667 42.666667 0 0 1-42.666667 42.666667zM938.666667 341.333333a128 128 0 0 0-85.333334-120.32V106.666667a42.666667 42.666667 0 0 0-85.333333 0v114.346666a128 128 0 0 0 0 240.64V896a42.666667 42.666667 0 0 0 85.333333 0V461.653333A128 128 0 0 0 938.666667 341.333333z m-128 42.666667a42.666667 42.666667 0 1 1 42.666666-42.666667 42.666667 42.666667 0 0 1-42.666666 42.666667zM256 221.013333V106.666667a42.666667 42.666667 0 0 0-85.333333 0v114.346666a128 128 0 0 0 0 240.64V896a42.666667 42.666667 0 0 0 85.333333 0V461.653333a128 128 0 0 0 0-240.64zM213.333333 384a42.666667 42.666667 0 1 1 42.666667-42.666667 42.666667 42.666667 0 0 1-42.666667 42.666667z" fill="#e6e6e6" p-id="1435"></path></svg>