<?xml version="1.0" standalone="no"?><!DOCTYPE svg PUBLIC "-//W3C//DTD SVG 1.1//EN" "http://www.w3.org/Graphics/SVG/1.1/DTD/svg11.dtd"><svg t="1651834379113" class="icon" viewBox="0 0 1024 1024" version="1.1" xmlns="http://www.w3.org/2000/svg" p-id="1633" xmlns:xlink="http://www.w3.org/1999/xlink" width="200" height="200"><defs><style type="text/css">@font-face { font-family: feedback-iconfont; src: url("//at.alicdn.com/t/font_1031158_u69w8yhxdu.woff2?t=1630033759944") format("woff2"), url("//at.alicdn.com/t/font_1031158_u69w8yhxdu.woff?t=1630033759944") format("woff"), url("//at.alicdn.com/t/font_1031158_u69w8yhxdu.ttf?t=1630033759944") format("truetype"); }
</style></defs><path d="M409.851803 223.937049c8.242361-24.592787 43.091934-21.856525 48.413377 2.232656l0.48682 2.988065 50.024918 450.123541 73.409049-220.294295a25.180328 25.180328 0 0 1 39.39882-11.868327l2.283016 2.031213 70.958164 70.941377 161.926295 0.016787a25.180328 25.180328 0 0 1 25.029246 22.444065l0.167869 2.736262a25.180328 25.180328 0 0 1-22.444066 25.046033l-2.753049 0.134295H684.401311a25.180328 25.180328 0 0 1-15.309639-5.187147l-2.484459-2.182295-49.521311-49.554886-96.809968 290.413115c-8.208787 24.609574-43.091934 21.906885-48.413377-2.199082l-0.503606-3.004852-50.024918-450.576787-70.38741 209.785705a25.180328 25.180328 0 0 1-21.554361 17.072262l-2.988065 0.100721-175.37259-4.666754a25.180328 25.180328 0 0 1-1.410099-50.276721l2.753049-0.067148 156.772722 4.146361 100.704524-300.334164z" p-id="1634" fill="#dbdbdb"></path></svg>