<?xml version="1.0" standalone="no"?><!DOCTYPE svg PUBLIC "-//W3C//DTD SVG 1.1//EN" "http://www.w3.org/Graphics/SVG/1.1/DTD/svg11.dtd"><svg t="1650424007974" class="icon" viewBox="0 0 1024 1024" version="1.1" xmlns="http://www.w3.org/2000/svg" p-id="1321" xmlns:xlink="http://www.w3.org/1999/xlink" width="200" height="200"><defs><style type="text/css">@font-face { font-family: feedback-iconfont; src: url("//at.alicdn.com/t/font_1031158_u69w8yhxdu.woff2?t=1630033759944") format("woff2"), url("//at.alicdn.com/t/font_1031158_u69w8yhxdu.woff?t=1630033759944") format("woff"), url("//at.alicdn.com/t/font_1031158_u69w8yhxdu.ttf?t=1630033759944") format("truetype"); }
</style></defs><path d="M864 65.3824H718.848V32.6656c0-18.0224-13.0048-32.6656-29.0304-32.6656-16.0256 0-29.0304 14.6432-29.0304 32.6656v32.7168h-290.304V32.6656C370.5344 14.6432 357.5808 0 341.504 0c-16.0256 0-29.0304 14.6432-29.0304 32.6656v32.7168H167.3216c-30.8224 0-60.3136 13.7728-82.1248 38.2976A139.5712 139.5712 0 0 0 51.2 196.096v686.4384c0 72.192 51.968 130.7648 116.1216 130.7648h696.6784c64.1536 0 116.1216-58.5216 116.1216-130.7648V196.1472c0-34.7136-12.288-67.9424-33.9968-92.4672-21.8112-24.5248-51.3536-38.2976-82.1248-38.2976zM109.2608 196.096c0-36.096 26.0096-65.3824 58.0608-65.3824h145.152v32.6656c0 18.0736 13.0048 32.7168 29.0304 32.7168 16.0256 0 29.0304-14.6432 29.0304-32.7168v-32.6656h290.304v32.6656c0 18.0736 12.9536 32.7168 28.9792 32.7168 16.0256 0 29.0304-14.6432 29.0304-32.7168v-32.6656h145.152c32.0512 0 58.0608 29.2864 58.0608 65.3824v98.048H109.2608V196.1472z m812.8 686.4384c0 36.1472-26.0096 65.3824-58.0608 65.3824H167.3216c-32.0512 0-58.0608-29.2352-58.0608-65.3824V359.5776h812.8v523.008z" fill="#CCCCCC" p-id="1322"></path><path d="M306.688 560.9984h139.264c12.8512 0 23.2448-13.1072 23.2448-29.3376 0-16.2304-10.3936-29.3888-23.1936-29.3888H306.6368c-12.8 0-23.1936 13.1584-23.1936 29.3888 0 16.2304 10.3936 29.3376 23.1936 29.3376z m0 176.2816h139.264c12.8512 0 23.2448-13.1584 23.2448-29.3888 0-16.2304-10.3936-29.3888-23.1936-29.3888H306.6368c-12.8 0-23.1936 13.1584-23.1936 29.3888 0 16.2304 10.3936 29.3888 23.1936 29.3888z m278.6304-176.2816h139.3664c12.8 0 23.1936-13.1072 23.1936-29.3376 0-16.2304-10.3936-29.3888-23.1936-29.3888h-139.3664c-12.8 0-23.1936 13.1584-23.1936 29.3888 0 16.2304 10.3936 29.3376 23.1936 29.3376z m0 176.2816h139.3664c12.8 0 23.1936-13.1584 23.1936-29.3888 0-16.2304-10.3936-29.3888-23.1936-29.3888h-139.3664c-12.8 0-23.1936 13.1584-23.1936 29.3888 0 16.2304 10.3936 29.3888 23.1936 29.3888z" fill="#CCCCCC" p-id="1323"></path></svg>