<?xml version="1.0" standalone="no"?><!DOCTYPE svg PUBLIC "-//W3C//DTD SVG 1.1//EN" "http://www.w3.org/Graphics/SVG/1.1/DTD/svg11.dtd"><svg t="1651197861907" class="icon" viewBox="0 0 1024 1024" version="1.1" xmlns="http://www.w3.org/2000/svg" p-id="1770" xmlns:xlink="http://www.w3.org/1999/xlink" width="200" height="200"><defs><style type="text/css">@font-face { font-family: feedback-iconfont; src: url("//at.alicdn.com/t/font_1031158_u69w8yhxdu.woff2?t=1630033759944") format("woff2"), url("//at.alicdn.com/t/font_1031158_u69w8yhxdu.woff?t=1630033759944") format("woff"), url("//at.alicdn.com/t/font_1031158_u69w8yhxdu.ttf?t=1630033759944") format("truetype"); }
</style></defs><path d="M810.666667 213.333333a42.666667 42.666667 0 1 0 0-85.333333v85.333333zM213.333333 128a42.666667 42.666667 0 0 0 0 85.333333V128z m256 725.333333a42.666667 42.666667 0 1 0 85.333334 0h-85.333334z m42.666667-512l30.165333-30.165333a42.666667 42.666667 0 0 0-60.330666 0L512 341.333333z m-158.165333 97.834667a42.666667 42.666667 0 1 0 60.330666 60.330667l-60.330666-60.330667z m256 60.330667a42.666667 42.666667 0 0 0 60.330666-60.330667l-60.330666 60.330667zM810.666667 128H213.333333v85.333333h597.333334V128z m-256 725.333333V341.333333h-85.333334v512h85.333334zM481.834667 311.168l-128 128 60.330666 60.330667 128-128-60.330666-60.330667z m0 60.330667l128 128 60.330666-60.330667-128-128-60.330666 60.330667z" fill="#000000" p-id="1771"></path></svg>