<?xml version="1.0" standalone="no"?><!DOCTYPE svg PUBLIC "-//W3C//DTD SVG 1.1//EN" "http://www.w3.org/Graphics/SVG/1.1/DTD/svg11.dtd"><svg t="1652343979007" class="icon" viewBox="0 0 1024 1024" version="1.1" xmlns="http://www.w3.org/2000/svg" p-id="1296" xmlns:xlink="http://www.w3.org/1999/xlink" width="200" height="200"><defs><style type="text/css">@font-face { font-family: feedback-iconfont; src: url("//at.alicdn.com/t/font_1031158_u69w8yhxdu.woff2?t=1630033759944") format("woff2"), url("//at.alicdn.com/t/font_1031158_u69w8yhxdu.woff?t=1630033759944") format("woff"), url("//at.alicdn.com/t/font_1031158_u69w8yhxdu.ttf?t=1630033759944") format("truetype"); }
</style></defs><path d="M85.333333 383.744A255.573333 255.573333 0 0 1 341.333333 128h341.333334c141.354667 0 256 114.986667 256 255.744V853.333333a42.666667 42.666667 0 0 1-42.666667 42.666667H341.333333c-141.354667 0-256-114.986667-256-255.744V383.744zM853.333333 789.333333V383.744A170.837333 170.837333 0 0 0 682.666667 213.333333H341.333333a170.24 170.24 0 0 0-170.666666 170.410667v256.512A170.837333 170.837333 0 0 0 341.333333 810.666667h490.666667a21.333333 21.333333 0 0 0 21.333333-21.333334zM341.333333 384h213.333334a42.666667 42.666667 0 1 1 0 85.333333H341.333333a42.666667 42.666667 0 1 1 0-85.333333z m0 170.666667h341.333334a42.666667 42.666667 0 1 1 0 85.333333H341.333333a42.666667 42.666667 0 1 1 0-85.333333z" fill="#515151" p-id="1297"></path></svg>