<?xml version="1.0" standalone="no"?><!DOCTYPE svg PUBLIC "-//W3C//DTD SVG 1.1//EN" "http://www.w3.org/Graphics/SVG/1.1/DTD/svg11.dtd"><svg t="1650423957309" class="icon" viewBox="0 0 1024 1024" version="1.1" xmlns="http://www.w3.org/2000/svg" p-id="1047" xmlns:xlink="http://www.w3.org/1999/xlink" width="200" height="200"><defs><style type="text/css">@font-face { font-family: feedback-iconfont; src: url("//at.alicdn.com/t/font_1031158_u69w8yhxdu.woff2?t=1630033759944") format("woff2"), url("//at.alicdn.com/t/font_1031158_u69w8yhxdu.woff?t=1630033759944") format("woff"), url("//at.alicdn.com/t/font_1031158_u69w8yhxdu.ttf?t=1630033759944") format("truetype"); }
</style></defs><path d="M301.7216 921.6a48.1792 48.1792 0 0 1-32.256-12.6464 41.7792 41.7792 0 0 1-0.4096-61.1328l350.8224-336.2304-350.464-334.6432a42.5984 42.5984 0 0 1-0.512-61.6448 46.4896 46.4896 0 0 1 63.9488-0.4096l370.5344 353.792c12.1344 11.6224 16.0256 28.16 11.6736 43.008a41.984 41.984 0 0 1-11.264 42.2912l-369.8688 354.5088a45.824 45.824 0 0 1-32.256 13.1072z" fill="#CCCCCC" p-id="1048"></path></svg>