<?xml version="1.0" standalone="no"?><!DOCTYPE svg PUBLIC "-//W3C//DTD SVG 1.1//EN" "http://www.w3.org/Graphics/SVG/1.1/DTD/svg11.dtd"><svg t="1652864822030" class="icon" viewBox="0 0 1024 1024" version="1.1" xmlns="http://www.w3.org/2000/svg" p-id="1278" xmlns:xlink="http://www.w3.org/1999/xlink" width="200" height="200"><defs><style type="text/css">@font-face { font-family: feedback-iconfont; src: url("//at.alicdn.com/t/font_1031158_u69w8yhxdu.woff2?t=1630033759944") format("woff2"), url("//at.alicdn.com/t/font_1031158_u69w8yhxdu.woff?t=1630033759944") format("woff"), url("//at.alicdn.com/t/font_1031158_u69w8yhxdu.ttf?t=1630033759944") format("truetype"); }
</style></defs><path d="M663.466667 296.064L512 451.84 361.216 296.106667a41.856 41.856 0 0 0-59.690667-0.469334 43.221333 43.221333 0 0 0-0.469333 60.629334L451.84 512l-150.784 155.477333c-16.426667 16.938667-16.213333 43.946667 0.469333 60.629334a41.898667 41.898667 0 0 0 59.733334-0.426667L512 572.16l151.466667 155.562667a41.984 41.984 0 0 0 59.733333 0.384 43.093333 43.093333 0 0 0 0.426667-60.586667L572.16 512l151.466667-155.776a43.136 43.136 0 0 0-0.426667-60.586667 41.941333 41.941333 0 0 0-59.733333 0.426667z" fill="#65544f" p-id="1279"></path></svg>