<?xml version="1.0" standalone="no"?><!DOCTYPE svg PUBLIC "-//W3C//DTD SVG 1.1//EN" "http://www.w3.org/Graphics/SVG/1.1/DTD/svg11.dtd"><svg t="1652084640384" class="icon" viewBox="0 0 1024 1024" version="1.1" xmlns="http://www.w3.org/2000/svg" p-id="963" xmlns:xlink="http://www.w3.org/1999/xlink" width="200" height="200"><defs><style type="text/css">@font-face { font-family: feedback-iconfont; src: url("//at.alicdn.com/t/font_1031158_u69w8yhxdu.woff2?t=1630033759944") format("woff2"), url("//at.alicdn.com/t/font_1031158_u69w8yhxdu.woff?t=1630033759944") format("woff"), url("//at.alicdn.com/t/font_1031158_u69w8yhxdu.ttf?t=1630033759944") format("truetype"); }
</style></defs><path d="M512 819.2a307.2 307.2 0 1 0 0-614.4 307.2 307.2 0 0 0 0 614.4zM896 512A384 384 0 1 1 128 512a384 384 0 0 1 768 0z" p-id="964" fill="#f4ea2a"></path><path d="M499.2 313.6a38.4 38.4 0 0 1 38.4 38.4v168.064l99.2 99.2a38.4 38.4 0 0 1-54.4 54.272L472.128 563.2a38.4 38.4 0 0 1-11.264-27.136V352a38.4 38.4 0 0 1 38.4-38.4z" p-id="965" fill="#f4ea2a"></path></svg>