<?xml version="1.0" standalone="no"?><!DOCTYPE svg PUBLIC "-//W3C//DTD SVG 1.1//EN" "http://www.w3.org/Graphics/SVG/1.1/DTD/svg11.dtd"><svg t="1651834646258" class="icon" viewBox="0 0 1024 1024" version="1.1" xmlns="http://www.w3.org/2000/svg" p-id="1447" xmlns:xlink="http://www.w3.org/1999/xlink" width="200" height="200"><defs><style type="text/css">@font-face { font-family: feedback-iconfont; src: url("//at.alicdn.com/t/font_1031158_u69w8yhxdu.woff2?t=1630033759944") format("woff2"), url("//at.alicdn.com/t/font_1031158_u69w8yhxdu.woff?t=1630033759944") format("woff"), url("//at.alicdn.com/t/font_1031158_u69w8yhxdu.ttf?t=1630033759944") format("truetype"); }
</style></defs><path d="M962 512c0 59.88-11.58 118.04-34.4 172.86-4.25 10.2-15.95 15.02-26.15 10.78-10.2-4.25-15.02-15.95-10.77-26.15 20.79-49.93 31.33-102.92 31.33-157.49 0-226.07-183.92-410-410-410S102 285.93 102 512s183.93 410 410 410c53.26 0 105.06-10.06 153.97-29.89 10.24-4.15 21.9 0.78 26.05 11.02s-0.78 21.9-11.02 26.05C627.3 950.96 570.44 962 512 962s-119.68-11.9-175.17-35.37c-53.59-22.67-101.71-55.11-143.03-96.43-41.32-41.32-73.76-89.44-96.43-143.03C73.9 631.68 62 572.75 62 512s11.9-119.68 35.37-175.17c22.67-53.59 55.11-101.71 96.43-143.03 41.32-41.32 89.44-73.76 143.03-96.43C392.32 73.9 451.26 62 512 62s119.67 11.9 175.17 35.37c53.59 22.67 101.71 55.11 143.03 96.43 41.32 41.32 73.76 89.44 96.43 143.03C950.1 392.32 962 451.26 962 512zM522.15 262.02v257.66c0 0.83-0.68 1.51-1.51 1.51H291.43c-11.05 0-20 8.95-20 20s8.95 20 20 20h229.21c22.89 0 41.51-18.62 41.51-41.51V262.02c0-11.05-8.95-20-20-20s-20 8.95-20 20zM906.94 780.8H803.31V677.17c0-11.05-8.95-20-20-20s-20 8.95-20 20V780.8H659.68c-11.05 0-20 8.95-20 20s8.95 20 20 20h103.63v103.63c0 11.05 8.95 20 20 20s20-8.95 20-20V820.8h103.63c11.05 0 20-8.95 20-20s-8.95-20-20-20z" p-id="1448" fill="#d81e06"></path></svg>