<?xml version="1.0" standalone="no"?><!DOCTYPE svg PUBLIC "-//W3C//DTD SVG 1.1//EN" "http://www.w3.org/Graphics/SVG/1.1/DTD/svg11.dtd"><svg t="1652344019433" class="icon" viewBox="0 0 1024 1024" version="1.1" xmlns="http://www.w3.org/2000/svg" p-id="1659" xmlns:xlink="http://www.w3.org/1999/xlink" width="200" height="200"><defs><style type="text/css">@font-face { font-family: feedback-iconfont; src: url("//at.alicdn.com/t/font_1031158_u69w8yhxdu.woff2?t=1630033759944") format("woff2"), url("//at.alicdn.com/t/font_1031158_u69w8yhxdu.woff?t=1630033759944") format("woff"), url("//at.alicdn.com/t/font_1031158_u69w8yhxdu.ttf?t=1630033759944") format("truetype"); }
</style></defs><path d="M746.666667 128a149.333333 149.333333 0 1 1-73.642667 279.296l-15.488 15.488c15.914667 25.941333 25.130667 56.490667 25.130667 89.216 0 29.525333-7.509333 57.301333-20.693334 81.493333l56.405334 56.490667a128 128 0 1 1-63.232 57.557333l-51.456-51.541333A169.856 169.856 0 0 1 512 682.666667c-19.712 0-38.656-3.328-56.32-9.514667l-46.336 46.336a149.333333 149.333333 0 1 1-59.776-60.885333l34.090667-34.133334A170.026667 170.026667 0 0 1 341.333333 512c0-33.365333 9.557333-64.426667 26.112-90.752L315.562667 369.322667a128 128 0 1 1 58.026666-62.634667l55.893334 55.893333A169.898667 169.898667 0 0 1 512 341.333333c30.592 0 59.306667 8.064 84.096 22.144l17.792-17.749333A149.333333 149.333333 0 0 1 746.666667 128z m-469.333334 597.333333a64 64 0 1 0 0 128 64 64 0 0 0 0-128zM768 725.333333a42.666667 42.666667 0 1 0 0 85.333334 42.666667 42.666667 0 0 0 0-85.333334z m-256-298.666666a85.333333 85.333333 0 1 0 0 170.666666 85.333333 85.333333 0 0 0 0-170.666666z m234.666667-213.333334a64 64 0 1 0 0 128 64 64 0 0 0 0-128zM256 213.333333a42.666667 42.666667 0 1 0 0 85.333334 42.666667 42.666667 0 0 0 0-85.333334z" fill="#515151" p-id="1660"></path></svg>