<?xml version="1.0" standalone="no"?><!DOCTYPE svg PUBLIC "-//W3C//DTD SVG 1.1//EN" "http://www.w3.org/Graphics/SVG/1.1/DTD/svg11.dtd"><svg t="1651834670998" class="icon" viewBox="0 0 1024 1024" version="1.1" xmlns="http://www.w3.org/2000/svg" p-id="1867" xmlns:xlink="http://www.w3.org/1999/xlink" width="200" height="200"><defs><style type="text/css">@font-face { font-family: feedback-iconfont; src: url("//at.alicdn.com/t/font_1031158_u69w8yhxdu.woff2?t=1630033759944") format("woff2"), url("//at.alicdn.com/t/font_1031158_u69w8yhxdu.woff?t=1630033759944") format("woff"), url("//at.alicdn.com/t/font_1031158_u69w8yhxdu.ttf?t=1630033759944") format("truetype"); }
</style></defs><path d="M496.83 829.72H193.19c-51.69 0-93.75-42.05-93.75-93.75v-443.2h765.37v283.28c0 8.28 6.72 15 15 15s15-6.72 15-15V193.64c0-68.23-55.51-123.75-123.75-123.75H193.19c-68.23 0-123.75 55.51-123.75 123.75v542.33c0 68.24 55.51 123.75 123.75 123.75h303.64c8.28 0 15-6.72 15-15s-6.72-15-15-15zM193.19 99.89h577.87c51.69 0 93.75 42.06 93.75 93.75v69.13H99.45v-69.13c0-51.69 42.06-93.75 93.75-93.75z m713.06 590.39l-244.2-140.99c-19.11-11.03-41.92-11.03-61.03 0s-30.51 30.79-30.51 52.85v281.98c0 22.06 11.41 41.82 30.51 52.85 9.55 5.52 20.03 8.27 30.51 8.27s20.96-2.76 30.51-8.27l244.2-140.99c19.11-11.03 30.51-30.79 30.51-52.85s-11.41-41.82-30.51-52.85z m-15 79.72l-244.2 140.99c-9.71 5.61-21.31 5.61-31.03 0-9.71-5.61-15.51-15.65-15.51-26.87V602.14c0-11.22 5.8-21.26 15.51-26.87 4.86-2.8 10.19-4.21 15.51-4.21s10.66 1.4 15.51 4.21l244.2 140.99c9.71 5.61 15.51 15.65 15.51 26.87s-5.8 21.26-15.51 26.87z" p-id="1868"></path></svg>