<?xml version="1.0" standalone="no"?><!DOCTYPE svg PUBLIC "-//W3C//DTD SVG 1.1//EN" "http://www.w3.org/Graphics/SVG/1.1/DTD/svg11.dtd"><svg t="1651834686973" class="icon" viewBox="0 0 1024 1024" version="1.1" xmlns="http://www.w3.org/2000/svg" p-id="2235" xmlns:xlink="http://www.w3.org/1999/xlink" width="200" height="200"><defs><style type="text/css">@font-face { font-family: feedback-iconfont; src: url("//at.alicdn.com/t/font_1031158_u69w8yhxdu.woff2?t=1630033759944") format("woff2"), url("//at.alicdn.com/t/font_1031158_u69w8yhxdu.woff?t=1630033759944") format("woff"), url("//at.alicdn.com/t/font_1031158_u69w8yhxdu.ttf?t=1630033759944") format("truetype"); }
</style></defs><path d="M423.3 829.72H193.19c-51.69 0-93.75-42.05-93.75-93.75v-443.2h765.37v219.36c0 8.28 6.72 15 15 15s15-6.71 15-15V193.64c0-68.23-55.51-123.75-123.75-123.75H193.19c-68.23 0-123.75 55.51-123.75 123.75v542.33c0 68.24 55.51 123.75 123.75 123.75h230.1c8.28 0 15-6.72 15-15s-6.72-15-15-15zM193.19 99.89h577.87c51.69 0 93.75 42.06 93.75 93.75v69.13H99.45v-69.13c0-51.69 42.06-93.75 93.75-93.75z m664.75 481.78c-41.01-41.01-95.54-63.6-153.53-63.6s-112.52 22.58-153.53 63.6-63.6 95.54-63.6 153.53 22.59 112.52 63.6 153.53 95.54 63.6 153.53 63.6 112.52-22.58 153.53-63.6c41.01-41.01 63.6-95.54 63.6-153.53s-22.58-112.52-63.6-153.53zM704.41 922.33c-103.18 0-187.13-83.95-187.13-187.13s83.95-187.13 187.13-187.13 187.13 83.95 187.13 187.13-83.95 187.13-187.13 187.13zM825.98 657.7c5.86 5.86 5.86 15.36 0 21.21L692.19 812.7c-2.93 2.93-6.77 4.39-10.61 4.39s-7.68-1.46-10.61-4.39l-78.3-78.3c-5.86-5.86-5.86-15.36 0-21.21 5.86-5.86 15.36-5.86 21.21 0l67.69 67.69L804.75 657.7c5.86-5.86 15.36-5.86 21.21 0zM556.57 442.89H227.21c-8.28 0-15-6.72-15-15s6.72-15 15-15h329.36c8.28 0 15 6.72 15 15s-6.72 15-15 15zM355.89 558.71c8.28 0 15 6.72 15 15s-6.72 15-15 15H227.21c-8.28 0-15-6.72-15-15s6.72-15 15-15h128.68z" p-id="2236" fill="#d4237a"></path></svg>