<?xml version="1.0" standalone="no"?><!DOCTYPE svg PUBLIC "-//W3C//DTD SVG 1.1//EN" "http://www.w3.org/Graphics/SVG/1.1/DTD/svg11.dtd"><svg t="1651834630219" class="icon" viewBox="0 0 1024 1024" version="1.1" xmlns="http://www.w3.org/2000/svg" p-id="873" xmlns:xlink="http://www.w3.org/1999/xlink" width="200" height="200"><defs><style type="text/css">@font-face { font-family: feedback-iconfont; src: url("//at.alicdn.com/t/font_1031158_u69w8yhxdu.woff2?t=1630033759944") format("woff2"), url("//at.alicdn.com/t/font_1031158_u69w8yhxdu.woff?t=1630033759944") format("woff"), url("//at.alicdn.com/t/font_1031158_u69w8yhxdu.ttf?t=1630033759944") format("truetype"); }
</style></defs><path d="M512 962c-60.74 0-119.68-11.9-175.17-35.37-53.59-22.67-101.71-55.11-143.03-96.43-41.32-41.32-73.76-89.44-96.43-143.03C73.9 631.68 62 572.75 62 512s11.9-119.68 35.37-175.17c22.67-53.59 55.11-101.71 96.43-143.03 41.32-41.32 89.44-73.76 143.03-96.43C392.32 73.9 451.26 62 512 62s119.67 11.9 175.17 35.37c53.59 22.67 101.71 55.11 143.03 96.43 41.32 41.32 73.76 89.44 96.43 143.03C950.1 392.32 962 451.26 962 512s-11.9 119.67-35.37 175.17c-22.67 53.59-55.11 101.71-96.43 143.03-41.32 41.32-89.44 73.76-143.03 96.43C631.68 950.1 572.75 962 512 962z m0-860c-226.07 0-410 183.93-410 410s183.93 410 410 410 410-183.92 410-410-183.92-410-410-410z m152.32 556.42c6.01-9.27 3.37-21.65-5.9-27.66l-142.28-92.27c-7.89-5.11-12.59-13.78-12.59-23.18V237.53c0-11.05-8.95-20-20-20s-20 8.95-20 20v277.78c0 23.01 11.53 44.22 30.83 56.74l142.28 92.27c3.36 2.18 7.13 3.22 10.86 3.22 6.55 0 12.97-3.21 16.8-9.12z" p-id="874" fill="#cdcdcd"></path></svg>