<?xml version="1.0" standalone="no"?><!DOCTYPE svg PUBLIC "-//W3C//DTD SVG 1.1//EN" "http://www.w3.org/Graphics/SVG/1.1/DTD/svg11.dtd"><svg t="1651834655225" class="icon" viewBox="0 0 1024 1024" version="1.1" xmlns="http://www.w3.org/2000/svg" p-id="1657" xmlns:xlink="http://www.w3.org/1999/xlink" width="200" height="200"><defs><style type="text/css">@font-face { font-family: feedback-iconfont; src: url("//at.alicdn.com/t/font_1031158_u69w8yhxdu.woff2?t=1630033759944") format("woff2"), url("//at.alicdn.com/t/font_1031158_u69w8yhxdu.woff?t=1630033759944") format("woff"), url("//at.alicdn.com/t/font_1031158_u69w8yhxdu.ttf?t=1630033759944") format("truetype"); }
</style></defs><path d="M512 962c-60.74 0-119.68-11.9-175.17-35.37-53.59-22.67-101.71-55.11-143.03-96.43-41.32-41.32-73.76-89.44-96.43-143.03C73.9 631.68 62 572.75 62 512s11.9-119.68 35.37-175.17c22.67-53.59 55.11-101.71 96.43-143.03 41.32-41.32 89.44-73.76 143.03-96.43C392.32 73.9 451.26 62 512 62s119.67 11.9 175.17 35.37c53.59 22.67 101.71 55.11 143.03 96.43 41.32 41.32 73.76 89.44 96.43 143.03C950.1 392.32 962 451.26 962 512s-11.9 119.67-35.37 175.17c-22.67 53.59-55.11 101.71-96.43 143.03-41.32 41.32-89.44 73.76-143.03 96.43C631.68 950.1 572.75 962 512 962z m0-860c-226.07 0-410 183.93-410 410s183.93 410 410 410 410-183.92 410-410-183.92-410-410-410z m-44.35 573.93l274.64-274.64c7.81-7.81 7.81-20.47 0-28.28s-20.47-7.81-28.29 0l-260.5 260.5-141.74-141.74c-7.81-7.81-20.47-7.81-28.28 0s-7.81 20.47 0 28.28l155.88 155.88c3.75 3.75 8.84 5.86 14.14 5.86s10.39-2.11 14.14-5.86z" p-id="1658" fill="#1afa29"></path></svg>