<?xml version="1.0" standalone="no"?><!DOCTYPE svg PUBLIC "-//W3C//DTD SVG 1.1//EN" "http://www.w3.org/Graphics/SVG/1.1/DTD/svg11.dtd"><svg t="1652091023463" class="icon" viewBox="0 0 1024 1024" version="1.1" xmlns="http://www.w3.org/2000/svg" p-id="1080" xmlns:xlink="http://www.w3.org/1999/xlink" width="200" height="200"><defs><style type="text/css">@font-face { font-family: feedback-iconfont; src: url("//at.alicdn.com/t/font_1031158_u69w8yhxdu.woff2?t=1630033759944") format("woff2"), url("//at.alicdn.com/t/font_1031158_u69w8yhxdu.woff?t=1630033759944") format("woff"), url("//at.alicdn.com/t/font_1031158_u69w8yhxdu.ttf?t=1630033759944") format("truetype"); }
</style></defs><path d="M320 586.666667h-85.333333a170.666667 170.666667 0 0 1-170.666667-170.666667v-192a170.666667 170.666667 0 0 1 170.666667-170.666667h85.333333a170.666667 170.666667 0 0 1 170.666667 170.666667v192a170.666667 170.666667 0 0 1-170.666667 170.666667z m-85.333333-448a85.333333 85.333333 0 0 0-85.333334 85.333333v192a85.333333 85.333333 0 0 0 85.333334 85.333333h85.333333a85.333333 85.333333 0 0 0 85.333333-85.333333v-192a85.333333 85.333333 0 0 0-85.333333-85.333333zM789.333333 960h-85.333333a170.666667 170.666667 0 0 1-170.666667-170.666667V597.333333a170.666667 170.666667 0 0 1 170.666667-170.666666h85.333333a170.666667 170.666667 0 0 1 170.666667 170.666666v192a170.666667 170.666667 0 0 1-170.666667 170.666667z m-85.333333-448a85.333333 85.333333 0 0 0-85.333333 85.333333v192a85.333333 85.333333 0 0 0 85.333333 85.333334h85.333333a85.333333 85.333333 0 0 0 85.333334-85.333334V597.333333a85.333333 85.333333 0 0 0-85.333334-85.333333zM362.666667 960h-170.666667a128 128 0 0 1-128-128V768a128 128 0 0 1 128-128h170.666667a128 128 0 0 1 128 128v64a128 128 0 0 1-128 128z m-170.666667-234.666667a42.666667 42.666667 0 0 0-42.666667 42.666667v64a42.666667 42.666667 0 0 0 42.666667 42.666667h170.666667a42.666667 42.666667 0 0 0 42.666666-42.666667V768a42.666667 42.666667 0 0 0-42.666666-42.666667zM832 373.333333h-170.666667a128 128 0 0 1-128-128v-64a128 128 0 0 1 128-128h170.666667a128 128 0 0 1 128 128v64a128 128 0 0 1-128 128z m-170.666667-234.666666a42.666667 42.666667 0 0 0-42.666666 42.666666v64a42.666667 42.666667 0 0 0 42.666666 42.666667h170.666667a42.666667 42.666667 0 0 0 42.666667-42.666667v-64a42.666667 42.666667 0 0 0-42.666667-42.666666z" fill="#e6e6e6" p-id="1081"></path></svg>