<?xml version="1.0" standalone="no"?><!DOCTYPE svg PUBLIC "-//W3C//DTD SVG 1.1//EN" "http://www.w3.org/Graphics/SVG/1.1/DTD/svg11.dtd"><svg t="1650350278955" class="icon" viewBox="0 0 1024 1024" version="1.1" xmlns="http://www.w3.org/2000/svg" p-id="908" xmlns:xlink="http://www.w3.org/1999/xlink" width="200" height="200"><defs><style type="text/css">@font-face { font-family: feedback-iconfont; src: url("//at.alicdn.com/t/font_1031158_u69w8yhxdu.woff2?t=1630033759944") format("woff2"), url("//at.alicdn.com/t/font_1031158_u69w8yhxdu.woff?t=1630033759944") format("woff"), url("//at.alicdn.com/t/font_1031158_u69w8yhxdu.ttf?t=1630033759944") format("truetype"); }
</style></defs><path d="M451.9424 935.7312l1.024-367.5648-367.616 1.024A58.4704 58.4704 0 0 1 28.16 512c0.1024-30.6688 26.9824-57.5488 57.6-57.6l367.616-1.024 1.024-367.616C454.4 55.0912 481.28 28.2112 511.9488 28.16c30.6176-0.0512 57.344 26.624 57.2416 57.2928l-1.024 367.616 367.616-1.0752c30.6176-0.1024 57.344 26.624 57.2416 57.2416-0.1024 30.6688-26.9824 57.5488-57.6 57.6l-367.616 1.024-1.024 367.616a51.0976 51.0976 0 0 1-57.6 57.6 58.4704 58.4704 0 0 1-57.2416-57.2928z" fill="#CCCCCC" p-id="909"></path></svg>