<?xml version="1.0" standalone="no"?><!DOCTYPE svg PUBLIC "-//W3C//DTD SVG 1.1//EN" "http://www.w3.org/Graphics/SVG/1.1/DTD/svg11.dtd"><svg t="1652344836800" class="icon" viewBox="0 0 1024 1024" version="1.1" xmlns="http://www.w3.org/2000/svg" p-id="1330" xmlns:xlink="http://www.w3.org/1999/xlink" width="200" height="200"><defs><style type="text/css">@font-face { font-family: feedback-iconfont; src: url("//at.alicdn.com/t/font_1031158_u69w8yhxdu.woff2?t=1630033759944") format("woff2"), url("//at.alicdn.com/t/font_1031158_u69w8yhxdu.woff?t=1630033759944") format("woff"), url("//at.alicdn.com/t/font_1031158_u69w8yhxdu.ttf?t=1630033759944") format("truetype"); }
</style></defs><path d="M603.477333 85.333333a85.333333 85.333333 0 0 1 60.288 24.96l206.72 206.336a85.333333 85.333333 0 0 1 25.045334 60.416V725.333333l-0.170667 9.258667A213.333333 213.333333 0 0 1 682.197333 938.666667h-341.333333l-9.258667-0.213334A213.333333 213.333333 0 0 1 127.573333 725.333333V298.666667l0.213334-9.258667A213.333333 213.333333 0 0 1 340.864 85.333333zM553.386667 170.666667H340.864a128 128 0 0 0-128 128v426.666666l0.213333 7.509334A128 128 0 0 0 340.906667 853.333333h341.333333l7.552-0.213333A128 128 0 0 0 810.197333 725.333333v-297.984h-128.768l-7.552-0.213333a128 128 0 0 1-120.448-127.786667V170.666667z m86.101333 469.333333a42.666667 42.666667 0 0 1 0 85.333333h-256a42.666667 42.666667 0 0 1 0-85.333333h256z m0-170.666667a42.666667 42.666667 0 0 1 0 85.333334h-256a42.666667 42.666667 0 0 1 0-85.333334h256z m-213.333333-170.666666a42.666667 42.666667 0 0 1 0 85.333333h-42.666667a42.666667 42.666667 0 1 1 0-85.333333h42.666667z m212.906666-92.373334v92.672l0.256 4.992a42.666667 42.666667 0 0 0 42.410667 37.674667h92.672l-135.338667-135.338667z" fill="#515151" p-id="1331"></path></svg>