<?xml version="1.0" standalone="no"?><!DOCTYPE svg PUBLIC "-//W3C//DTD SVG 1.1//EN" "http://www.w3.org/Graphics/SVG/1.1/DTD/svg11.dtd"><svg t="1652344637188" class="icon" viewBox="0 0 1024 1024" version="1.1" xmlns="http://www.w3.org/2000/svg" p-id="1932" xmlns:xlink="http://www.w3.org/1999/xlink" width="200" height="200"><defs><style type="text/css">@font-face { font-family: feedback-iconfont; src: url("//at.alicdn.com/t/font_1031158_u69w8yhxdu.woff2?t=1630033759944") format("woff2"), url("//at.alicdn.com/t/font_1031158_u69w8yhxdu.woff?t=1630033759944") format("woff"), url("//at.alicdn.com/t/font_1031158_u69w8yhxdu.ttf?t=1630033759944") format("truetype"); }
</style></defs><path d="M588.202667 0l14.933333 0.213333a139.946667 139.946667 0 0 1 125.909333 150.613334c-1.706667 18.005333-3.968 35.968-6.656 53.888l-4.394666 26.752-5.034667 26.112h73.429333c110.933333 0 155.605333 53.973333 152.618667 147.114666l-0.426667 8.832-0.682666 9.088-44.8 262.314667c-15.530667 107.264-55.466667 164.48-147.968 168.064l-9.386667 0.170667-549.290667-0.170667a93.354667 93.354667 0 0 1-100.650666-84.096L85.333333 760.96V348.970667a93.397333 93.397333 0 0 1 30.805334-67.498667c17.066667-15.36 39.04-23.893333 59.306666-24.149333l7.466667 0.298666h110.592a396.16 396.16 0 0 0 82.517333-6.4l4.181334-0.853333 8.832-10.026667a244.906667 244.906667 0 0 0 28.074666-42.24l5.632-11.392 5.034667-11.690666 31.914667-79.488A136.362667 136.362667 0 0 1 580.181333 0.341333L588.202667 0zM179.328 342.784a8.021333 8.021333 0 0 0-6.016 2.048 8.746667 8.746667 0 0 0-2.304 3.413333L170.666667 349.738667v410.368a8.021333 8.021333 0 0 0 2.645333 5.802666c1.28 1.152 2.986667 1.877333 6.528 1.962667l97.749333-0.128V342.912l-98.261333-0.128zM599.04 85.333333h-9.813333c-20.266667 0.213333-38.272 12.373333-47.061334 32.981334l-2.133333 5.845333-33.024 82.517333a330.24 330.24 0 0 1-64.725333 102.357334l-10.666667 10.922666-8.618667 8.490667-11.818666 2.688c-15.957333 3.626667-32.085333 6.4-48.213334 8.405333l-0.042666 428.245334h372.821333c40.96 0 57.941333-16.256 68.864-71.082667l1.536-8.106667 2.688-16.981333L853.333333 411.648l0.512-6.4 0.554667-11.690667c0.725333-38.229333-12.032-49.578667-60.8-50.56l-7.210667-0.042666h-154.666666a21.333333 21.333333 0 0 1-20.650667-26.709334l6.954667-26.709333c12.586667-48.213333 21.290667-97.365333 26.026666-146.048 2.133333-27.733333-16.938667-52.266667-40.277333-57.386667L599.082667 85.333333z" fill="#707070" p-id="1933"></path></svg>