<?xml version="1.0" standalone="no"?><!DOCTYPE svg PUBLIC "-//W3C//DTD SVG 1.1//EN" "http://www.w3.org/Graphics/SVG/1.1/DTD/svg11.dtd"><svg t="1652084254841" class="icon" viewBox="0 0 1024 1024" version="1.1" xmlns="http://www.w3.org/2000/svg" p-id="1651" xmlns:xlink="http://www.w3.org/1999/xlink" width="200" height="200"><defs><style type="text/css">@font-face { font-family: feedback-iconfont; src: url("//at.alicdn.com/t/font_1031158_u69w8yhxdu.woff2?t=1630033759944") format("woff2"), url("//at.alicdn.com/t/font_1031158_u69w8yhxdu.woff?t=1630033759944") format("woff"), url("//at.alicdn.com/t/font_1031158_u69w8yhxdu.ttf?t=1630033759944") format("truetype"); }
</style></defs><path d="M921.6 143.36H449.536l-13.312-26.112c-10.24-20.48-27.136-37.376-47.616-46.592-13.312-6.144-27.648-9.216-42.496-9.216H102.4C46.08 61.44 0 107.52 0 163.84v696.32c0 56.32 46.08 102.4 102.4 102.4h819.2c56.32 0 102.4-46.08 102.4-102.4V245.76c0-56.32-46.08-102.4-102.4-102.4z m20.48 716.8c0 11.264-9.216 20.48-20.48 20.48H102.4c-11.264 0-20.48-9.216-20.48-20.48V163.84c0-11.264 9.216-20.48 20.48-20.48h243.712c3.072 0 5.632 0.512 8.704 2.048 3.072 1.536 6.656 5.12 9.216 9.728l69.632 134.144c19.456 37.376 50.176 66.56 86.528 83.456 24.064 10.752 49.664 16.384 76.288 16.384H942.08v471.04zM595.968 307.2c-14.848 0-29.184-3.072-42.496-9.216-20.48-9.216-37.376-26.112-47.616-46.592L492.544 225.28H921.6c11.264 0 20.48 9.216 20.48 20.48v61.44h-346.112z" p-id="1652" fill="#f27006"></path><path d="M532.48 798.72H327.68c-22.528 0-40.96-18.432-40.96-40.96s18.432-40.96 40.96-40.96h204.8c22.528 0 40.96 18.432 40.96 40.96s-18.432 40.96-40.96 40.96z" p-id="1653" fill="#f27006"></path><path d="M206.336 757.76m-40.96 0a40.96 40.96 0 1 0 81.92 0 40.96 40.96 0 1 0-81.92 0Z" p-id="1654" fill="#f27006"></path></svg>